<?xml version="1.0" encoding="UTF-8"?><svg id="Layer_1" xmlns="http://www.w3.org/2000/svg" viewBox="0 0 516.31 424.83"><defs><style>.cls-1,.cls-2{stroke-width:0px;}.cls-3{stroke-width:11px;}.cls-3,.cls-4{fill:none;stroke:#fff;stroke-miterlimit:10;}.cls-2{fill:#f93228;}.cls-4{stroke-width:8.18px;}</style></defs><g id="Layer_1_copy"><path class="cls-3" d="M7.39,185.96c0-2.4.12-4.8-.02-7.19-.93-15.78,1.96-31.24,3.82-46.78,1.5-12.49,4.41-24.73,6.92-37.03.31-1.52.76-3.02,1.28-4.48,2.4-6.63,6.97-8.73,13.62-6.29,17.77,6.51,35.57,12.94,53.27,19.63,3.34,1.26,4.75.42,6.49-2.45,7.74-12.7,18.07-23.14,28.97-33.17,22.47-20.67,49.67-30.37,79.17-34.27,28.02-3.71,54.79,2.05,80.62,12.97,13.2,5.58,24.88,13.43,35.32,23.1,3.42,3.16,6.38,3.8,10.8,2.12,25.17-9.59,50.13-19.77,75.82-27.97,4.56-1.46,9.05-3.15,13.6-4.62,2.29-.74.32,1.5.91-.85.81-3.22-2.52-4.14-2.83-7.36-.29-2.94-1.76-4.01-4.93-3.23-20.69,5.09-33.64,8.43-54.35,13.41-.81.2-6.24,1.94-7.06,2.12-8.09,1.79-8.17-2.19-12-9.18-.23-.42-1.85-3.13-2.12-3.53-3.47-5.09,1.27-4.67,7.37-6.81,20.29-7.13,41.29-11.33,62.44-14.88,9.66-1.62,19.28-3.61,29.16-3.72,3.69-.04,5.75,1.31,7.17,4.59,2.36,5.49,5.04,10.85,7.49,16.3.86,1.92,1.99,2.58,3.93,1.58,2.58-1.33,3.56-.17,3.5,2.36-.25,11.86-.33,23.72-.89,35.57-.29,6.23-.11,12.46-.39,18.68-.24,5.41-1.04,9.72-6.14,10.56-27.73,4.6-49.9,10.3-77.65,14.82-4.36.71-13.92-3.73-18.31-3.15-2.05.27-2.58,1.06-1.44,3.12,3.31,6,3.2,5.87,10.22,5.21,12.51-1.16,25.05-1.93,37.55-3.14,10.59-1.03,21.14-2.48,31.77-3.15,6.56-.41,13.12-.93,19.68-1.52,3.13-.28,3.71,1.57,3.64,3.98-.24,7.54-.49,15.08-.85,22.62-.34,7.17-.87,14.33-1.24,21.5-.21,4.09-3.57,7.87-7.6,7.46-17.38-1.79-28.44-3.2-45.88-4.24-6.8-.4-13.68-.07-20.47-.71-.83-.08-5.52-.63-6.35-.71-2.41-.22-3.23-3.44-2.68-.54,1.73,9.07,2.51,18.24,2.43,27.5-.07,7.33-.66,14.61-1.78,21.81-.44,2.84.49,3.9,2.85,4.75,9.24,3.33,18.44,6.75,27.66,10.13,11.7,4.3,23.07,9.41,34.48,14.39,4.82,2.1,5.91,4.47,4.4,8.66-9.28,25.76-21.56,49.96-38.53,71.53-14.42,18.33-30.98,34.56-49.09,49.31-26.91,21.89-57.32,36.72-90.28,46.96-11.09,3.45-22.41,4.82-33.76,6.48-9.54,1.39-19.22,1.38-28.69.54-13.76-1.22-27.49-2.95-40.82-7.4-16.18-5.4-32.12-11.22-46.96-19.69-20.06-11.45-37.57-25.91-52.53-43.62-25.03-29.6-38.35-64.33-45.45-101.84-1.89-9.98-2.89-20.12-4.43-30.16-1.54-10.07-.16-20.1-.85-30.12l.02.04Z"/><path class="cls-4" d="M461.38,77.24c1.34-16.6.12-33.26,1.31-49.87.18-2.48,1.16-3.62,3.37-4.33,13.33-4.27,26.62-8.61,39.95-12.89,3.74-1.2,4.42-.73,4.57,3.26.55,14.22,1.01,28.44,1.59,42.66.26,6.33-.75,12.99-.29,19.31.22,3-3.17,10.72-6.35,11.29-14.7,2.63-26.26,5.02-40.94,7.76-2.71.51-3.09-6.85-3.18-9.29-.09-2.63-.02-5.27-.02-7.9h-.01Z"/><path class="cls-4" d="M458.58,155.49c.74-15.85,1.46-30.54,2.1-45.24.13-2.93,1.56-4.35,4.41-4.57,12.51-.97,25.02-1.96,37.53-2.95,1.9-.15,3.81-.35,5.7-.56,3.43-.38,3.9.14,3.02,3.38-3.47,12.69-6.94,25.38-10.39,38.07-1.32,4.85-2.63,9.7-3.82,14.57-.8,3.29-3.65,8.5-7.14,8.23-9.77-.76-17.76.09-27.53-.71-4.34-.35-3.73-8.86-3.88-10.24v.02Z"/></g><g id="Layer_1-2"><path class="cls-1" d="M13.34,212.6v-52.94c1.15-.34.62-1.32.71-2.01,2.1-16.53,3.4-33.16,7.46-49.39,1.43-5.74,1.69-11.76,4.26-17.21,1.98-4.22,6.58-5.98,10.82-4.17,1.25.53,2.56.95,3.84,1.42,9.49,3.47,18.98,6.95,28.48,10.4,8.54,3.11,16.9,6.73,25.63,9.3,5.34,3.18,11.45,4.45,17.16,6.7,4.34,1.7,8.67,3.48,13.07,5.07,9.77,3.52,19.57,6.93,29.3,10.52,6.95,2.56,13.79,5.47,20.74,8.04,9.63,3.54,19.36,6.8,28.99,10.37,10.91,4.04,21.72,8.34,32.62,12.39,9.93,3.69,20.02,6.98,29.87,10.87,8.87,3.5,18.05,6.16,26.62,10.44,3.75,1.88,7.86,3.05,11.82,4.51,6.1,2.27,12.21,4.5,18.32,6.75,5.88,2.17,11.79,4.23,17.63,6.5,8.59,3.35,17.25,6.54,26.01,9.44,1.43.71,2.79,1.63,4.3,2.08,9.49,2.86,18.55,6.88,27.87,10.21,10.79,3.85,21.2,8.8,31.75,13.3,5.91,2.52,6.68,4.61,3.83,10.05-.26.5-.39,1.08-.59,1.6-2.87,7.54-5.66,15.09-9.22,22.35-5,10.18-10.59,20.05-16.69,29.54-6.67,10.37-14.38,20.1-22.82,29.17-3.96,4.27-7.92,8.53-12.02,12.66-8.58,8.63-17.82,16.49-27.43,23.97-7.83,6.1-15.94,11.78-24.39,16.82-9.71,5.79-19.96,10.7-30.31,15.4-11.22,5.09-23.14,7.89-34.58,12.16-6.21,2.32-13.2,2.49-19.82,3.77-4.63.9-9.42.63-13.97,2.04h-4.13c-1.6-.71-3.21-.71-4.82,0h-5.51c-1.6-.71-3.21-.71-4.82,0h-5.51c-.28-.93-1.08-.61-1.7-.7-4.99-.71-10.02-1.16-14.95-2.16-5.37-1.08-10.96-1.21-16.11-3.15-3.66-1.38-7.24-2.91-11.04-3.93-9.15-2.44-17.88-6.16-26.4-10.17-7.79-3.66-15.51-7.59-22.66-12.48-4.86-3.32-9.85-6.49-14.43-10.16-8.32-6.69-16.24-13.78-23.36-21.85-6.11-6.95-11.82-14.15-16.94-21.78-6.46-9.62-11.86-19.87-16.33-30.58-3.94-9.44-7.33-19.09-10.1-28.92-3.94-13.97-6.51-28.23-8.41-42.63-.6-4.55-.39-9.23-2.02-13.63h0l-.02.02ZM132.68,165.84c-12.94-.58-22.6,5.12-30.29,14.08-3.31,3.85-6.58,8.23-7.47,13.62-.33,1.96-.32,3.87,2.11,4.79,8.2,3.1,16.18,6.73,24.34,9.92,12.2,4.78,24.34,9.67,36.72,13.94,3.19,1.1,4.65.46,5.8-2.69,2.71-7.41,3.89-15.07,2.82-22.89-1.04-7.67-3.51-15.19-8.95-20.69-6.84-6.92-15.48-10.83-25.09-10.1v.02h0ZM306.02,258.09c-.56-7.28-1.39-14.42-5.42-20.92-5.14-8.29-12.15-13.92-21.7-15.78-8.58-1.67-16.7.06-24.41,4.43-8.1,4.59-14.12,10.93-17.9,19.34-1.86,4.13-.52,6.8,3.9,8.04,4.63,1.29,9.05,3.26,13.37,5.13,13.8,5.98,28.13,10.68,41.73,17.13,4.12,1.95,6.94.8,8.15-3.53,1.26-4.5,2.45-9.05,2.27-13.83h.01Z"/><path class="cls-2" d="M203.3,414.73c1.6-.71,3.21-.71,4.82,0h-4.82Z"/><path class="cls-2" d="M213.62,414.73c1.6-.71,3.21-.71,4.82,0h-4.82Z"/><path class="cls-2" d="M347.45,109c1.75,3.12,3.49,6.24,5.24,9.36-1.12.23-2.23.56-3.36.66-12.75,1.2-25.56,1.72-38.25,3.53-13.6,1.95-27.35,2.27-40.99,3.92-2.25.27-2.65.96-2.19,2.95,1.08,4.55,2.12,9.11,3.01,13.71.43,2.27,1.52,3.18,3.84,3.33,19.98,1.3,39.95,2.78,59.85,4.94,10.36,1.13,20.81.88,31.13,2.32,4.06,18.55,3.99,37.18.95,55.86-8.76-2.9-17.42-6.09-26.01-9.44-5.83-2.27-11.75-4.35-17.63-6.5-6.11-2.25-12.21-4.49-18.32-6.75-3.96-1.46-8.06-2.64-11.82-4.51-8.57-4.29-17.76-6.95-26.62-10.44-9.85-3.89-19.94-7.17-29.87-10.87-10.9-4.05-21.71-8.36-32.62-12.39-9.63-3.56-19.36-6.82-28.99-10.37-6.95-2.56-13.79-5.46-20.74-8.04-9.73-3.6-19.54-7.01-29.3-10.52-4.4-1.59-8.73-3.37-13.07-5.07-5.71-2.25-11.82-3.52-17.16-6.7,3.36-6.9,8.18-12.82,12.94-18.75,6.44-8.03,14.31-14.57,21.96-21.41,7.72-6.9,16.42-12.22,25.55-16.35,30.8-13.96,62.83-18.52,96.27-10.74,10.96,2.55,21.52,6.06,31.7,10.59,7.47,3.31,14.68,7.32,21.29,12.25,5.71,4.26,11.12,8.85,16.42,13.59-.86,1.05-2.15,1.24-3.34,1.54-5.77,1.43-11.14,4.03-16.69,6.05-11.88,4.31-23.66,8.91-35.59,13.08-1.39.48-2.96.93-2.53,3.01,1.18,5.69,1.46,11.54,3.16,17.15.41,1.34.75,1.88,2.27,1.65,13.01-1.91,26.07-3.48,39.11-5.19,13.47-1.77,26.94-3.48,40.4-5.44h0ZM257.75,118.79c-.93-4.45-2.26-9.11-2.75-13.86-.33-3.15-1.32-2.83-3.52-1.94-7.6,3.09-15.39,5.74-22.94,8.88-6.95,2.88-7.32.48-4.28,9.23.19.54.33,1.09.52,1.63.37,1.07.88,1.62,2.26,1.45,9.86-1.3,19.74-2.5,29.62-3.72.93-.11,1.61-.28,1.09-1.67h0ZM257.11,128.02c-8.19.69-16.28,1.38-24.37,2.05-6.17.51-6.63,1.24-3.99,6.96.62,1.33,1.67,2.47,2.29,3.79.68,1.44,1.71,1.97,3.22,2.02,8.93.29,17.8,1.3,26.67,2.26,1.69.19,2.59-.02,2.01-2.15-1.14-4.18-2.12-8.41-3-12.66-.36-1.76-.93-2.8-2.81-2.28h-.02Z"/><path class="cls-2" d="M132.68,165.84c9.62-.73,18.25,3.18,25.09,10.1,5.44,5.5,7.9,13.01,8.95,20.69,1.07,7.82-.11,15.48-2.82,22.89-1.15,3.14-2.61,3.78-5.8,2.69-12.38-4.27-24.53-9.17-36.72-13.94-8.17-3.2-16.15-6.82-24.34-9.92-2.42-.92-2.43-2.82-2.11-4.79.89-5.39,4.16-9.77,7.47-13.62,7.69-8.96,17.36-14.66,30.29-14.08v-.02h0ZM159.1,203.42c.32-18.79-11.83-31.04-28.96-29.99-9.37.57-16.41,5.4-22.13,12.49-1.22,1.51-2.42,3.05-3.41,4.71-.85,1.39-.55,2.29,1.29,3.01,9.75,3.82,19.31,8.11,29.17,11.64,6.86,2.46,13.69,5,20.45,7.69,2.19.87,2.75-.21,2.94-1.82.35-2.95.49-5.92.63-7.74h.02,0Z"/><path class="cls-2" d="M306.02,258.09c.18,4.78-1.01,9.33-2.27,13.83-1.22,4.34-4.04,5.48-8.15,3.53-13.6-6.44-27.92-11.15-41.73-17.13-4.32-1.88-8.74-3.84-13.37-5.13-4.42-1.23-5.76-3.9-3.9-8.04,3.78-8.41,9.8-14.75,17.9-19.34,7.7-4.37,15.82-6.11,24.41-4.43,9.55,1.87,16.56,7.49,21.7,15.78,4.03,6.5,4.86,13.64,5.42,20.92h-.01ZM298.38,257.89c-.29-13.26-7.23-25.16-19.99-28.53-12-3.17-26.79,5.12-32.99,15.42-.84,1.39-.04,2.11,1.23,2.52,4.89,1.6,9.48,3.99,14.3,5.7,9.57,3.38,18.92,7.33,28.3,11.16,8.95,3.65,9.18,3.74,9.15-6.27h0Z"/><path class="cls-1" d="M347.45,109c-13.44,1.97-26.93,3.67-40.4,5.44-13.04,1.72-26.09,3.29-39.11,5.19-1.52.22-1.86-.32-2.27-1.65-1.69-5.61-1.97-11.46-3.16-17.15-.43-2.07,1.14-2.51,2.53-3.01,11.93-4.18,23.71-8.78,35.59-13.08,5.55-2.02,10.92-4.62,16.69-6.05,1.19-.29,2.48-.49,3.34-1.54,3.37-.63,6.64-1.84,9.71-3.09,5.29-2.15,10.92-3.44,16-5.98,10.08-5.03,21-7.81,31.41-11.92,10.9-4.29,22.19-7.6,33.3-11.36,1.73-.58,3.37-1.43,5.11-1.97,1.52-.47,2.14-1.46,2.61-2.86,1.52-4.61,1.57-9.15.16-13.82-.56-1.84-1.15-1.87-2.83-1.45-15.84,3.94-31.64,8.07-47.61,11.45-7.95,1.68-15.71,4.08-23.68,5.6-1.56.3-2.64.24-3.22-1.48-1.04-3.16-2.45-6.12-4.92-8.51-1.37-1.32-.26-1.85,1-2.27,5.95-1.97,11.78-4.39,17.85-5.88,12.86-3.16,25.75-6.41,38.8-8.57,12.62-2.07,25.19-4.88,38.08-5.15,1.97-.04,2.96.38,3.83,2.35,2.34,5.29,4.89,10.51,7.72,15.55.91,1.61.26,4.24,2.45,4.81,1.89.49,3.62-1.12,5.3-1.5,0,5.23.11,10.4-.03,15.57-.4,14.41-.91,28.82-1.34,43.22-.04,1.48-.13,2.36-2.06,2.69-16.47,2.75-32.85,6.16-49.39,8.37-14.4,1.93-28.61,5.1-43.1,6.45-2.83.26-5.61,1.03-8.41,1.57h.02l.03.03Z"/><path class="cls-1" d="M365.74,153.74c-10.33-1.44-20.78-1.19-31.13-2.32-19.9-2.17-39.88-3.65-59.85-4.94-2.32-.15-3.41-1.07-3.84-3.33-.88-4.59-1.92-9.16-3.01-13.71-.47-1.99-.06-2.68,2.19-2.95,13.63-1.65,27.39-1.97,40.99-3.92,12.69-1.82,25.5-2.34,38.25-3.53,1.13-.11,2.24-.43,3.36-.66,7.28-.7,14.57-1.32,21.83-2.12,10.01-1.08,20.11-1.23,30.1-2.57,14.18-1.9,28.5-2.36,42.73-3.78,2.34-.24,2.63.41,2.59,2.44-.26,15.43-1.43,30.82-2.14,46.24-.11,2.43-1.47,1.77-2.72,1.67-10.26-.9-20.51-1.9-30.77-2.74-14.25-1.17-28.57-1.69-42.78-3.32-1.92-.22-3.86-.29-5.79-.43h0v-.03Z"/><path class="cls-1" d="M505.41,13.81c.75,17.23,1.48,34.24,2.22,51.25.2,4.68.41,9.37.7,14.04.11,1.77-.33,2.56-2.31,2.91-14.85,2.63-29.69,5.36-44.49,8.2-2.88.56-2.84-.82-2.79-2.89.42-18.99.78-37.97,1.18-56.97.02-.98-.29-2.03,1.15-2.49,14.19-4.57,28.36-9.18,42.55-13.77.43-.14.9-.15,1.8-.29h0Z"/><path class="cls-1" d="M507.31,104.72c-2.64,7.3-3.76,14.63-5.92,21.72-3.31,10.88-6.09,21.91-8.88,32.94-.78,3.11-2.07,4.2-5.38,3.89-9.68-.9-19.38-1.49-29.09-2.09-1.67-.11-2.35-.35-2.24-2.31.9-16.08,1.72-32.16,2.43-48.26.09-1.89,1.04-1.88,2.35-2.03,10.46-1.2,20.94-2.06,31.47-2.57,4.98-.24,9.95-.84,15.26-1.3h0Z"/><path class="cls-1" d="M257.75,118.79c.51,1.39-.17,1.56-1.09,1.67-9.88,1.21-19.76,2.42-29.62,3.72-1.38.19-1.89-.38-2.26-1.45-.19-.54-.33-1.09-.52-1.63-3.04-8.74-2.66-6.35,4.28-9.23,7.55-3.14,15.35-5.78,22.94-8.88,2.19-.9,3.19-1.21,3.52,1.94.49,4.74,1.82,9.4,2.75,13.86h0Z"/><path class="cls-1" d="M257.11,128.02c1.89-.52,2.45.52,2.81,2.28.87,4.25,1.86,8.47,3,12.66.58,2.13-.31,2.34-2.01,2.15-8.88-.96-17.74-1.97-26.67-2.26-1.51-.05-2.54-.58-3.22-2.02-.63-1.33-1.67-2.46-2.29-3.79-2.64-5.71-2.18-6.44,3.99-6.96,8.09-.67,16.18-1.36,24.37-2.05h.02,0Z"/><path class="cls-1" d="M159.1,203.42c-.14,1.82-.28,4.79-.63,7.74-.19,1.6-.76,2.69-2.94,1.82-6.77-2.7-13.59-5.24-20.45-7.69-9.87-3.53-19.43-7.84-29.17-11.64-1.84-.72-2.13-1.61-1.29-3.01,1-1.66,2.19-3.2,3.41-4.71,5.71-7.09,12.76-11.92,22.13-12.49,17.13-1.05,29.28,11.2,28.96,29.99h-.02,0Z"/><path class="cls-1" d="M298.38,257.89c.04,10-.2,9.92-9.15,6.27-9.39-3.83-18.73-7.77-28.3-11.16-4.82-1.7-9.4-4.11-14.3-5.7-1.28-.41-2.07-1.13-1.23-2.52,6.21-10.29,21-18.59,32.99-15.42,12.76,3.38,19.7,15.27,19.99,28.53h0Z"/></g></svg>